<svg viewBox="0 0 349 308" fill="none" xmlns="http://www.w3.org/2000/svg">
<path d="M12 296H337" stroke="#163252" stroke-width="24" stroke-linecap="round"/>
<rect x="16" y="12" width="314" height="243" rx="4" fill="#50A5DC" stroke="#163252" stroke-width="24"/>
<path d="M179.115 58.2274L179.115 58.2273C181.55 56.3238 184.915 56.0048 187.756 57.0307C190.622 58.0654 192.058 60.0555 192.058 62.0826V203.246C192.058 205.273 190.622 207.263 187.758 208.298C184.917 209.324 181.553 209.006 179.117 207.103L179.117 207.103L133.602 171.554C129.851 168.624 125.022 167.071 120.108 167.071H92.3428C77.2914 167.071 66.3806 157.03 66.3806 146.097V119.263C66.3806 108.33 77.2915 98.2884 92.3428 98.2884H120.103C125.019 98.2884 129.851 96.734 133.603 93.8016L131.139 90.6501L133.603 93.8016L179.115 58.2274Z" fill="#D7EBF4" stroke="#163252" stroke-width="8"/>
<path d="M244.203 51.9554C247.08 49.4248 251.464 49.7055 253.994 52.5824C272.978 74.1646 284.5 102.495 284.5 133.499C284.5 164.503 272.978 192.834 253.994 214.416C251.464 217.293 247.08 217.573 244.203 215.043C241.326 212.513 241.045 208.129 243.576 205.252C260.419 186.105 270.625 161.003 270.625 133.499C270.625 105.996 260.419 80.8932 243.576 61.7464C241.045 58.8696 241.326 54.486 244.203 51.9554Z" fill="#163252"/>
<path d="M232.263 80.8009C229.964 77.7364 225.616 77.1164 222.551 79.4162C219.486 81.716 218.866 86.0646 221.166 89.1291C230.443 101.492 235.938 116.844 235.938 133.499C235.938 150.155 230.443 165.507 221.166 177.869C218.866 180.934 219.486 185.282 222.551 187.582C225.616 189.882 229.964 189.262 232.263 186.197C243.282 171.516 249.813 153.26 249.813 133.499C249.813 113.738 243.282 95.4831 232.263 80.8009Z" fill="#163252"/>
<path d="M129 99L129 166" stroke="#163252" stroke-width="8" stroke-linecap="round"/>
</svg>
