<svg viewBox="0 0 544 544" fill="none" xmlns="http://www.w3.org/2000/svg">
<path d="M146 398H171.65L347.6 222.05L321.95 196.4L146 372.35V398ZM128 434C122.9 434 118.628 432.272 115.184 428.816C111.74 425.36 110.012 421.088 110 416V372.35C110 367.55 110.9 362.972 112.7 358.616C114.5 354.26 117.05 350.438 120.35 347.15L347.6 120.35C351.2 117.05 355.178 114.5 359.534 112.7C363.89 110.9 368.462 110 373.25 110C378.038 110 382.688 110.9 387.2 112.7C391.712 114.5 395.612 117.2 398.9 120.8L423.65 146C427.25 149.3 429.872 153.2 431.516 157.7C433.16 162.2 433.988 166.7 434 171.2C434 176 433.172 180.578 431.516 184.934C429.86 189.29 427.238 193.262 423.65 196.85L196.85 423.65C193.55 426.95 189.722 429.5 185.366 431.3C181.01 433.1 176.438 434 171.65 434H128ZM334.55 209.45L321.95 196.4L347.6 222.05L334.55 209.45Z" fill="#163252"/>
<path d="M146 398H171.65L347.6 222.05L334.55 209.45L321.95 196.4L146 372.35V398Z" fill="#D7EBF4"/>
</svg>
