<svg viewBox="0 0 168 168" fill="none" xmlns="http://www.w3.org/2000/svg">
<path d="M62.25 2.76195e-05C68.1 2.76195e-05 73.53 1.81803 78 4.90803V42H64.956C63.5459 37.9929 60.7631 34.6141 57.1004 32.4621C53.4378 30.3101 49.1318 29.5238 44.945 30.2424C40.7581 30.9611 36.9608 33.1383 34.2254 36.3884C31.49 39.6386 29.9932 43.752 30 48C30.0097 52.2389 31.5149 56.3384 34.2507 59.5762C36.9864 62.8141 40.7771 64.9826 44.9549 65.6997C49.1327 66.4168 53.4295 65.6365 57.0884 63.4962C60.7473 61.3559 63.5334 57.9931 64.956 54H78V161.994C72.8141 165.903 66.4939 168.011 60 168H58.14C51.747 167.999 45.5213 165.956 40.3708 162.169C35.2204 158.382 31.4144 153.048 29.508 146.946L28.494 143.682C20.5986 142.594 13.3639 138.685 8.12628 132.677C2.88868 126.67 0.00217705 118.97 2.37397e-05 111V108C-0.0101731 99.1384 3.2648 90.5876 9.19203 84H33C35.387 84 37.6762 84.9482 39.364 86.6361C41.0518 88.3239 42 90.6131 42 93V97.044C37.9929 98.4542 34.6141 101.237 32.4621 104.9C30.3101 108.562 29.5238 112.868 30.2424 117.055C30.9611 121.242 33.1383 125.039 36.3884 127.775C39.6386 130.51 43.752 132.007 48 132C52.2389 131.99 56.3384 130.485 59.5762 127.749C62.8141 125.014 64.9826 121.223 65.6997 117.045C66.4168 112.867 65.6365 108.571 63.4962 104.912C61.3559 101.253 57.9931 98.4666 54 97.044V93C54 87.4305 51.7875 82.089 47.8493 78.1508C43.911 74.2125 38.5696 72 33 72H12.024C8.10907 66.8163 5.99387 60.496 6.00002 54C6.00113 46.2593 8.99423 38.8186 14.3536 33.2333C19.7131 27.648 27.0239 24.3505 34.758 24.03C35.6569 17.376 38.9383 11.2738 43.9937 6.85494C49.0492 2.43611 55.5356 0.000580766 62.25 2.76195e-05ZM105.75 2.76195e-05C112.464 0.000580766 118.951 2.43611 124.006 6.85494C129.062 11.2738 132.343 17.376 133.242 24.03C139.332 24.2855 145.2 26.3899 150.064 30.0632C154.928 33.7365 158.558 38.8043 160.47 44.5919C162.382 50.3795 162.486 56.6123 160.768 62.4605C159.05 68.3086 155.591 73.4946 150.852 77.328C156.093 80.5495 160.421 85.0601 163.423 90.4296C166.425 95.7991 168.001 101.848 168 108V111C167.998 118.97 165.111 126.67 159.874 132.677C154.636 138.685 147.401 142.594 139.506 143.682L138.492 146.946C136.586 153.048 132.78 158.382 127.629 162.169C122.479 165.956 116.253 167.999 109.86 168H108C101.506 168.011 95.186 165.903 90 161.994V120H105C110.57 120 115.911 117.788 119.849 113.849C123.788 109.911 126 104.57 126 99V94.95C130.003 93.5369 133.377 90.7536 135.526 87.0924C137.674 83.4313 138.459 79.1283 137.74 74.9445C137.022 70.7607 134.847 66.9657 131.601 64.2308C128.354 61.4958 124.245 59.9972 120 60C115.755 59.9972 111.646 61.4958 108.399 64.2308C105.153 66.9657 102.978 70.7607 102.26 74.9445C101.541 79.1283 102.326 83.4313 104.474 87.0924C106.623 90.7536 109.997 93.5369 114 94.95V99C114 101.387 113.052 103.676 111.364 105.364C109.676 107.052 107.387 108 105 108H90V4.90803C94.6269 1.70459 100.122 -0.00793177 105.75 2.76195e-05ZM48 108C49.5913 108 51.1174 108.632 52.2427 109.757C53.3679 110.883 54 112.409 54 114C54 115.591 53.3679 117.117 52.2427 118.243C51.1174 119.368 49.5913 120 48 120C46.4087 120 44.8826 119.368 43.7574 118.243C42.6322 117.117 42 115.591 42 114C42 112.409 42.6322 110.883 43.7574 109.757C44.8826 108.632 46.4087 108 48 108ZM120 72C121.591 72 123.117 72.6322 124.243 73.7574C125.368 74.8826 126 76.4087 126 78C126 79.5913 125.368 81.1174 124.243 82.2427C123.117 83.3679 121.591 84 120 84C118.409 84 116.883 83.3679 115.757 82.2427C114.632 81.1174 114 79.5913 114 78C114 76.4087 114.632 74.8826 115.757 73.7574C116.883 72.6322 118.409 72 120 72ZM48 42C49.5913 42 51.1174 42.6322 52.2427 43.7574C53.3679 44.8826 54 46.4087 54 48C54 49.5913 53.3679 51.1174 52.2427 52.2427C51.1174 53.3679 49.5913 54 48 54C46.4087 54 44.8826 53.3679 43.7574 52.2427C42.6322 51.1174 42 49.5913 42 48C42 46.4087 42.6322 44.8826 43.7574 43.7574C44.8826 42.6322 46.4087 42 48 42Z" fill="#50A5DC"/>
</svg>
