<svg viewBox="0 0 18 12" fill="none" xmlns="http://www.w3.org/2000/svg">
<path fill-rule="evenodd" clip-rule="evenodd" d="M14.3515 11.5715H3.64868H3.57828V11.5708C1.79861 11.5331 0.367432 10.0721 0.367432 8.27537C0.367432 6.52688 1.72271 5.09635 3.43561 4.98603C3.68293 3.63865 4.74595 2.57837 6.0911 2.34112C6.88132 1.15125 8.22982 0.367432 9.76054 0.367432C12.195 0.367432 14.1684 2.34985 14.1684 4.79528C14.1684 4.85868 14.1671 4.92175 14.1645 4.98449C14.2264 4.98099 14.2887 4.97922 14.3515 4.97922C16.1637 4.97922 17.6327 6.45494 17.6327 8.27537C17.6327 10.0531 16.2317 11.5022 14.4782 11.5691V11.5715H14.3515Z" fill="#50A5DC"/>
<path d="M3.60869 11.5223H3.19279V11.9388H3.60869V11.5223ZM3.60869 11.5216H4.02459V11.1138L3.61742 11.1052L3.60869 11.5216ZM3.46682 4.99457L3.49344 5.41021L3.81705 5.38943L3.87583 5.07009L3.46682 4.99457ZM6.10738 2.37285L6.17928 2.78308L6.35461 2.75226L6.45336 2.60399L6.10738 2.37285ZM14.1353 4.99305L13.7198 4.97555L13.7005 5.43464L14.1587 5.40882L14.1353 4.99305ZM14.4473 11.5199L14.4316 11.1038L14.0314 11.119V11.5199H14.4473ZM14.4473 11.5223V11.9388H14.8632V11.5223H14.4473ZM14.3213 11.1058H3.6787V11.9388H14.3213V11.1058ZM3.6787 11.1058H3.60869V11.9388H3.6787V11.1058ZM4.02459 11.5223V11.5216H3.19279V11.5223H4.02459ZM3.61742 11.1052C2.07355 11.0727 0.831804 9.809 0.831804 8.25506H0C0 10.2631 1.6045 11.8959 3.59991 11.9379L3.61742 11.1052ZM0.831804 8.25506C0.831804 6.74296 2.0077 5.50558 3.49344 5.41021L3.44025 4.57898C1.51947 4.70226 0 6.30081 0 8.25506H0.831804ZM3.87583 5.07009C4.09026 3.90551 5.013 2.98812 6.17928 2.78308L6.03547 1.96268C4.52658 2.22792 3.33521 3.41255 3.0578 4.91905L3.87583 5.07009ZM6.45336 2.60399C7.16525 1.53538 8.3789 0.832938 9.75618 0.832938V0C8.08924 0 6.62102 0.851447 5.7614 2.14176L6.45336 2.60399ZM9.75618 0.832938C11.9472 0.832938 13.7234 2.61154 13.7234 4.8055H14.5552C14.5552 2.15153 12.4066 0 9.75618 0V0.832938ZM13.7234 4.8055C13.7234 4.86251 13.7222 4.91919 13.7198 4.97555L14.5509 5.01054C14.5537 4.94251 14.5552 4.87417 14.5552 4.8055H13.7234ZM14.1587 5.40882C14.2125 5.40581 14.2667 5.40429 14.3213 5.40429V4.57135C14.2511 4.57135 14.1813 4.57334 14.112 4.57722L14.1587 5.40882ZM14.3213 5.40429C15.8936 5.40429 17.1682 6.68062 17.1682 8.25506H18C18 6.22061 16.353 4.57135 14.3213 4.57135V5.40429ZM17.1682 8.25506C17.1682 9.79253 15.9526 11.0459 14.4316 11.1038L14.4631 11.9361C16.4292 11.8613 18 10.242 18 8.25506H17.1682ZM14.0314 11.5199V11.5223H14.8632V11.5199H14.0314ZM14.4473 11.1058H14.3213V11.9388H14.4473V11.1058Z" fill="#163252"/>
<mask id="mask0_84_206" style="mask-type:luminance" maskUnits="userSpaceOnUse" x="5" y="3" width="8" height="8">
<path d="M12.8684 3.24902H5.85718V10.2603H12.8684V3.24902Z" fill="white"/>
</mask>
<g mask="url(#mask0_84_206)">
<path d="M12.7288 7.11288V6.39646C12.7288 6.21404 12.5809 6.06615 12.3985 6.06615H11.785C11.7314 5.87707 11.656 5.69716 11.5621 5.529L11.9962 5.09495C12.1252 4.96598 12.1252 4.75682 11.9962 4.62785L11.4896 4.12129C11.3606 3.99227 11.1515 3.99227 11.0225 4.12129L10.5884 4.55534C10.4203 4.4614 10.2404 4.38607 10.0513 4.33244V3.71898C10.0513 3.53656 9.9034 3.38867 9.72098 3.38867H9.00457C8.82215 3.38867 8.6743 3.53656 8.6743 3.71898V4.33244C8.48523 4.38607 8.30527 4.4614 8.13715 4.55534L7.70305 4.12124C7.57409 3.99227 7.36497 3.99227 7.23596 4.12124L6.7294 4.62785C6.60043 4.75682 6.60043 4.96598 6.7294 5.09495L7.16349 5.529C7.06956 5.69716 6.99422 5.87707 6.94059 6.06615H6.32713C6.14472 6.06615 5.99683 6.21404 5.99683 6.39646V7.11288C5.99683 7.29529 6.14472 7.44314 6.32713 7.44314H6.94059C6.99422 7.63221 7.06956 7.81217 7.16349 7.98029L6.7294 8.41439C6.60043 8.54335 6.60043 8.75247 6.7294 8.88148L7.23601 9.38805C7.36497 9.51701 7.57409 9.51701 7.7031 9.38805L8.13715 8.95399C8.30531 9.04788 8.48523 9.12322 8.6743 9.17685V9.79035C8.6743 9.97272 8.82215 10.1206 9.00457 10.1206H9.72103C9.9034 10.1206 10.0513 9.97277 10.0513 9.79035V9.17685C10.2404 9.12322 10.4203 9.04788 10.5884 8.95399L11.0225 9.38805C11.1515 9.51701 11.3606 9.51701 11.4896 9.38805L11.9962 8.88148C12.1252 8.75247 12.1252 8.54335 11.9962 8.41439L11.5621 7.98029C11.656 7.81217 11.7314 7.63221 11.785 7.44314H12.3985C12.5809 7.44314 12.7288 7.29529 12.7288 7.11288ZM9.36282 8.0621C8.64071 8.0621 8.05534 7.47673 8.05534 6.75467C8.05534 6.03256 8.64071 5.44719 9.36282 5.44719C10.0849 5.44719 10.6703 6.03256 10.6703 6.75467C10.6703 7.47673 10.0849 8.0621 9.36282 8.0621Z" fill="#CEF0FF"/>
<path d="M9.72104 10.2603H9.00462C8.74548 10.2603 8.53466 10.0495 8.53466 9.79036V9.28019C8.40731 9.2384 8.28288 9.18676 8.1628 9.12586L7.80186 9.4868C7.61866 9.67005 7.32046 9.67005 7.13726 9.4868L6.63065 8.98024C6.44745 8.79699 6.44745 8.49884 6.63065 8.3156L6.99164 7.95466C6.93074 7.83458 6.8791 7.71014 6.83731 7.5828H6.32714C6.068 7.5828 5.85718 7.37202 5.85718 7.11288V6.39646C5.85718 6.13733 6.068 5.9265 6.32714 5.9265H6.83731C6.87905 5.79915 6.93074 5.67472 6.99164 5.55469L6.63065 5.1937C6.44745 5.01046 6.44745 4.71231 6.63065 4.52911L7.13726 4.0225C7.32046 3.8393 7.61866 3.8393 7.80186 4.0225L8.1628 4.38344C8.28288 4.32254 8.40731 4.2709 8.53466 4.22916V3.71898C8.53466 3.45985 8.74548 3.24902 9.00462 3.24902H9.72104C9.98017 3.24902 10.191 3.45985 10.191 3.71898V4.22916C10.3183 4.27095 10.4427 4.32254 10.5628 4.38344L10.9238 4.0225C11.107 3.8393 11.4051 3.8393 11.5884 4.0225L12.095 4.52911C12.2782 4.71231 12.2782 5.01046 12.095 5.1937L11.734 5.55464C11.7949 5.67472 11.8466 5.79915 11.8883 5.9265H12.3985C12.6577 5.9265 12.8684 6.13733 12.8684 6.39642V7.11288C12.8684 7.37197 12.6576 7.5828 12.3985 7.5828H11.8883C11.8466 7.71014 11.7949 7.83458 11.734 7.95461L12.095 8.3156C12.2782 8.49884 12.2782 8.79694 12.095 8.98019L11.5884 9.4868C11.4051 9.67 11.107 9.67 10.9238 9.4868L10.5628 9.12582C10.4427 9.18671 10.3183 9.2384 10.191 9.28014V9.79032C10.191 10.0495 9.98013 10.2603 9.72104 10.2603ZM8.13721 8.8143C8.16044 8.8143 8.1839 8.82013 8.20523 8.83207C8.36603 8.92184 8.53665 8.99264 8.71244 9.04248C8.77251 9.05955 8.81397 9.11443 8.81397 9.17686V9.79036C8.81397 9.89545 8.89948 9.98097 9.00457 9.98097H9.72099C9.82613 9.98097 9.91164 9.89545 9.91164 9.79036V9.17686C9.91164 9.11443 9.9531 9.05955 10.0132 9.04248C10.1889 8.99264 10.3596 8.92184 10.5203 8.83207C10.5749 8.80162 10.6431 8.81106 10.6872 8.85525L11.1213 9.2893C11.1956 9.36362 11.3165 9.36362 11.3908 9.2893L11.8974 8.78274C11.9717 8.70842 11.9717 8.58746 11.8974 8.51314L11.4634 8.07909C11.4192 8.0349 11.4097 7.96678 11.4402 7.91222C11.5299 7.75147 11.6007 7.58081 11.6506 7.40506C11.6677 7.34499 11.7225 7.30349 11.785 7.30349H12.3985C12.5036 7.30349 12.5891 7.21802 12.5891 7.11288V6.39646C12.5891 6.29137 12.5036 6.20586 12.3985 6.20586H11.785C11.7225 6.20586 11.6677 6.1644 11.6506 6.10433C11.6007 5.92854 11.5299 5.75792 11.4402 5.59717C11.4097 5.54261 11.4192 5.47445 11.4634 5.4303L11.8974 4.9962C11.9717 4.92189 11.9717 4.80097 11.8974 4.72665L11.3908 4.22004C11.3165 4.14577 11.1956 4.14573 11.1213 4.22004L10.6872 4.6541C10.6431 4.69829 10.5749 4.70773 10.5203 4.67728C10.3596 4.58751 10.1889 4.51671 10.0132 4.46687C9.95306 4.4498 9.91164 4.39496 9.91164 4.33249V3.71898C9.91164 3.6139 9.82613 3.52838 9.72099 3.52838H9.00457C8.89948 3.52838 8.81397 3.6139 8.81397 3.71898V4.33244C8.81397 4.39491 8.77251 4.44975 8.71244 4.46682C8.53665 4.51671 8.36603 4.58746 8.20523 4.67728C8.15072 4.70773 8.08256 4.69829 8.03841 4.6541L7.60431 4.22C7.53004 4.14573 7.40908 4.14568 7.33476 4.22L6.8282 4.72661C6.75388 4.80093 6.75388 4.92184 6.8282 4.99616L7.26225 5.43021C7.30644 5.4744 7.31588 5.54256 7.28543 5.59708C7.19566 5.75783 7.12482 5.92849 7.07498 6.10424C7.0579 6.16435 7.00307 6.20581 6.9406 6.20581H6.32714C6.222 6.20581 6.13654 6.29133 6.13654 6.39642V7.11284C6.13654 7.21797 6.222 7.30344 6.32714 7.30344H6.9406C7.00307 7.30344 7.0579 7.3449 7.07498 7.40501C7.12482 7.58076 7.19566 7.75142 7.28543 7.91218C7.31588 7.96674 7.30644 8.03485 7.26225 8.07904L6.8282 8.5131C6.75388 8.58741 6.75388 8.70833 6.8282 8.78269L7.33476 9.28926C7.40908 9.36357 7.52999 9.36357 7.60431 9.28926L8.03841 8.8552C8.0653 8.82836 8.10107 8.8143 8.13721 8.8143ZM9.36283 8.20176C8.56487 8.20176 7.91574 7.55258 7.91574 6.75467C7.91574 5.95672 8.56487 5.30758 9.36283 5.30758C10.1608 5.30758 10.8099 5.95672 10.8099 6.75467C10.8099 7.55258 10.1608 8.20176 9.36283 8.20176ZM9.36283 5.58689C8.71892 5.58689 8.19505 6.11077 8.19505 6.75467C8.19505 7.39858 8.71892 7.9224 9.36283 7.9224C10.0067 7.9224 10.5306 7.39858 10.5306 6.75467C10.5306 6.11077 10.0067 5.58689 9.36283 5.58689Z" fill="#163252"/>
<path d="M7.43793 6.66356C7.36801 6.66356 7.31128 6.60794 7.31128 6.53936C7.31128 6.20216 7.4098 5.87509 7.59619 5.59347C7.77768 5.31929 8.03283 5.10129 8.33408 4.96317C8.39743 4.93406 8.47281 4.9609 8.50247 5.02304C8.53209 5.08519 8.50474 5.15914 8.44139 5.1882C7.90873 5.43253 7.56458 5.96288 7.56458 6.53936C7.56458 6.60794 7.50785 6.66356 7.43793 6.66356Z" fill="#163252"/>
</g>
</svg>
