<svg viewBox="0 0 319 319" fill="none" xmlns="http://www.w3.org/2000/svg">
<path d="M179.438 68.0868V219.308C179.438 230.336 170.528 239.246 159.5 239.246C148.472 239.246 139.562 230.336 139.562 219.308V68.0868L93.8309 113.821C86.0428 121.609 73.3949 121.609 65.6068 113.821C57.8188 106.032 57.8188 93.3837 65.6068 85.5952L145.357 5.84135C153.145 -1.94712 165.793 -1.94712 173.581 5.84135L253.331 85.5952C261.119 93.3837 261.119 106.032 253.331 113.821C245.543 121.609 232.895 121.609 225.107 113.821L179.438 68.0868ZM39.875 219.308H119.625C119.625 241.302 137.506 259.185 159.5 259.185C181.494 259.185 199.375 241.302 199.375 219.308H279.125C301.119 219.308 319 237.19 319 259.185V279.123C319 301.118 301.119 319 279.125 319H39.875C17.8814 319 0 301.118 0 279.123V259.185C0 237.19 17.8814 219.308 39.875 219.308ZM269.156 284.108C273.122 284.108 276.925 282.532 279.73 279.728C282.534 276.923 284.109 273.12 284.109 269.154C284.109 265.188 282.534 261.384 279.73 258.58C276.925 255.775 273.122 254.2 269.156 254.2C265.19 254.2 261.387 255.775 258.583 258.58C255.779 261.384 254.203 265.188 254.203 269.154C254.203 273.12 255.779 276.923 258.583 279.728C261.387 282.532 265.19 284.108 269.156 284.108Z" fill="#50A5DC"/>
</svg>
